# This file uses meters as units for non-parametric coordinates.

g default
v -100.000000 0.000000 100.000000
v 100.000000 0.000000 100.000000
v -100.000000 0.000000 -100.000000
v 100.000000 0.000000 -100.000000
v 0.000000 0.000000 -100.000000
v 100.000000 0.000000 0.000000
v -100.000000 0.000000 0.000000
v 0.000000 0.000000 100.000000
v 0.000000 0.000000 0.000000
v -50.000000 0.000000 0.000000
v 50.000000 0.000000 0.000000
v 0.000000 0.000000 -50.000000
v 0.000000 0.000000 50.000000
v 50.000000 0.000000 100.000000
v -100.000000 0.000000 -50.000000
v 100.000000 0.000000 -50.000000
v 50.000000 0.000000 -100.000000
v -50.000000 0.000000 -100.000000
v 100.000000 0.000000 50.000000
v -100.000000 0.000000 50.000000
v -50.000000 0.000000 100.000000
v -50.000000 0.000000 -50.000000
v 50.000000 0.000000 50.000000
v 50.000000 0.000000 -50.000000
v -50.000000 0.000000 50.000000
v -75.000000 0.000000 50.000000
v -25.000000 0.000000 50.000000
v -50.000000 0.000000 25.000000
v -50.000000 0.000000 75.000000
v 50.000000 0.000000 -75.000000
v 50.000000 0.000000 -25.000000
v 75.000000 0.000000 -50.000000
v 25.000000 0.000000 -50.000000
v 75.000000 0.000000 50.000000
v 25.000000 0.000000 50.000000
v 50.000000 0.000000 75.000000
v 50.000000 0.000000 25.000000
v -75.000000 0.000000 -50.000000
v -25.000000 0.000000 -50.000000
v -50.000000 0.000000 -75.000000
v -50.000000 0.000000 -25.000000
v -25.000000 0.000000 100.000000
v -100.000000 0.000000 25.000000
v 100.000000 0.000000 25.000000
v -25.000000 0.000000 -100.000000
v 75.000000 0.000000 -100.000000
v 100.000000 0.000000 -75.000000
v -100.000000 0.000000 -75.000000
v 75.000000 0.000000 100.000000
v 0.000000 0.000000 25.000000
v 0.000000 0.000000 -75.000000
v 75.000000 0.000000 0.000000
v -75.000000 0.000000 0.000000
v -25.000000 0.000000 0.000000
v 25.000000 0.000000 0.000000
v 0.000000 0.000000 -25.000000
v 0.000000 0.000000 75.000000
v 25.000000 0.000000 100.000000
v -100.000000 0.000000 -25.000000
v 100.000000 0.000000 -25.000000
v 25.000000 0.000000 -100.000000
v -75.000000 0.000000 -100.000000
v 100.000000 0.000000 75.000000
v -100.000000 0.000000 75.000000
v -75.000000 0.000000 100.000000
v -75.000000 0.000000 25.000000
v -25.000000 0.000000 75.000000
v -25.000000 0.000000 25.000000
v 75.000000 0.000000 -75.000000
v 25.000000 0.000000 -25.000000
v 75.000000 0.000000 -25.000000
v 75.000000 0.000000 75.000000
v 25.000000 0.000000 25.000000
v 25.000000 0.000000 75.000000
v -75.000000 0.000000 -75.000000
v -25.000000 0.000000 -25.000000
v -25.000000 0.000000 -75.000000
v -75.000000 0.000000 -25.000000
v 75.000000 0.000000 25.000000
v 25.000000 0.000000 -75.000000
v -75.000000 0.000000 75.000000
vt 0.000000 0.000000
vt 1.000000 0.000000
vt 0.000000 1.000000
vt 1.000000 1.000000
vt 0.500000 1.000000
vt 1.000000 0.500000
vt 0.000000 0.500000
vt 0.500000 0.000000
vt 0.500000 0.500000
vt 0.250000 0.500000
vt 0.750000 0.500000
vt 0.500000 0.750000
vt 0.500000 0.250000
vt 0.750000 0.000000
vt 0.000000 0.750000
vt 1.000000 0.750000
vt 0.750000 1.000000
vt 0.250000 1.000000
vt 1.000000 0.250000
vt 0.000000 0.250000
vt 0.250000 0.000000
vt 0.250000 0.750000
vt 0.750000 0.250000
vt 0.750000 0.750000
vt 0.250000 0.250000
vt 0.125000 0.250000
vt 0.375000 0.250000
vt 0.250000 0.375000
vt 0.250000 0.125000
vt 0.750000 0.875000
vt 0.750000 0.625000
vt 0.875000 0.750000
vt 0.625000 0.750000
vt 0.875000 0.250000
vt 0.625000 0.250000
vt 0.750000 0.125000
vt 0.750000 0.375000
vt 0.125000 0.750000
vt 0.375000 0.750000
vt 0.250000 0.875000
vt 0.250000 0.625000
vt 0.375000 0.000000
vt 0.000000 0.375000
vt 1.000000 0.375000
vt 0.375000 1.000000
vt 0.875000 1.000000
vt 1.000000 0.875000
vt 0.000000 0.875000
vt 0.875000 0.000000
vt 0.500000 0.375000
vt 0.500000 0.875000
vt 0.875000 0.500000
vt 0.125000 0.500000
vt 0.375000 0.500000
vt 0.625000 0.500000
vt 0.500000 0.625000
vt 0.500000 0.125000
vt 0.625000 0.000000
vt 0.000000 0.625000
vt 1.000000 0.625000
vt 0.625000 1.000000
vt 0.125000 1.000000
vt 1.000000 0.125000
vt 0.000000 0.125000
vt 0.125000 0.000000
vt 0.125000 0.375000
vt 0.375000 0.125000
vt 0.375000 0.375000
vt 0.875000 0.875000
vt 0.625000 0.625000
vt 0.875000 0.625000
vt 0.875000 0.125000
vt 0.625000 0.375000
vt 0.625000 0.125000
vt 0.125000 0.875000
vt 0.375000 0.625000
vt 0.375000 0.875000
vt 0.125000 0.625000
vt 0.875000 0.375000
vt 0.625000 0.875000
vt 0.125000 0.125000
vn 0.000000 1.000000 0.000000
vn 0.000000 1.000000 0.000000
vn 0.000000 1.000000 0.000000
vn 0.000000 1.000000 0.000000
vn 0.000000 1.000000 0.000000
vn 0.000000 1.000000 0.000000
vn 0.000000 1.000000 0.000000
vn 0.000000 1.000000 0.000000
vn 0.000000 1.000000 0.000000
vn 0.000000 1.000000 0.000000
vn 0.000000 1.000000 0.000000
vn 0.000000 1.000000 0.000000
vn 0.000000 1.000000 0.000000
vn 0.000000 1.000000 0.000000
vn 0.000000 1.000000 0.000000
vn 0.000000 1.000000 0.000000
vn 0.000000 1.000000 0.000000
vn 0.000000 1.000000 0.000000
vn 0.000000 1.000000 0.000000
vn 0.000000 1.000000 0.000000
vn 0.000000 1.000000 0.000000
vn 0.000000 1.000000 0.000000
vn 0.000000 1.000000 0.000000
vn 0.000000 1.000000 0.000000
vn 0.000000 1.000000 0.000000
vn 0.000000 1.000000 0.000000
vn 0.000000 1.000000 0.000000
vn 0.000000 1.000000 0.000000
vn 0.000000 1.000000 0.000000
vn 0.000000 1.000000 0.000000
vn 0.000000 1.000000 0.000000
vn 0.000000 1.000000 0.000000
vn 0.000000 1.000000 0.000000
vn 0.000000 1.000000 0.000000
vn 0.000000 1.000000 0.000000
vn 0.000000 1.000000 0.000000
vn 0.000000 1.000000 0.000000
vn 0.000000 1.000000 0.000000
vn 0.000000 1.000000 0.000000
vn 0.000000 1.000000 0.000000
vn 0.000000 1.000000 0.000000
vn 0.000000 1.000000 0.000000
vn 0.000000 1.000000 0.000000
vn 0.000000 1.000000 0.000000
vn 0.000000 1.000000 0.000000
vn 0.000000 1.000000 0.000000
vn 0.000000 1.000000 0.000000
vn 0.000000 1.000000 0.000000
vn 0.000000 1.000000 0.000000
vn 0.000000 1.000000 0.000000
vn 0.000000 1.000000 0.000000
vn 0.000000 1.000000 0.000000
vn 0.000000 1.000000 0.000000
vn 0.000000 1.000000 0.000000
vn 0.000000 1.000000 0.000000
vn 0.000000 1.000000 0.000000
vn 0.000000 1.000000 0.000000
vn 0.000000 1.000000 0.000000
vn 0.000000 1.000000 0.000000
vn 0.000000 1.000000 0.000000
vn 0.000000 1.000000 0.000000
vn 0.000000 1.000000 0.000000
vn 0.000000 1.000000 0.000000
vn 0.000000 1.000000 0.000000
vn 0.000000 1.000000 0.000000
vn 0.000000 1.000000 0.000000
vn 0.000000 1.000000 0.000000
vn 0.000000 1.000000 0.000000
vn 0.000000 1.000000 0.000000
vn 0.000000 1.000000 0.000000
vn 0.000000 1.000000 0.000000
vn 0.000000 1.000000 0.000000
vn 0.000000 1.000000 0.000000
vn 0.000000 1.000000 0.000000
vn 0.000000 1.000000 0.000000
vn 0.000000 1.000000 0.000000
vn 0.000000 1.000000 0.000000
vn 0.000000 1.000000 0.000000
vn 0.000000 1.000000 0.000000
vn 0.000000 1.000000 0.000000
vn 0.000000 1.000000 0.000000
vn 0.000000 1.000000 0.000000
vn 0.000000 1.000000 0.000000
vn 0.000000 1.000000 0.000000
vn 0.000000 1.000000 0.000000
vn 0.000000 1.000000 0.000000
vn 0.000000 1.000000 0.000000
vn 0.000000 1.000000 0.000000
vn 0.000000 1.000000 0.000000
vn 0.000000 1.000000 0.000000
vn 0.000000 1.000000 0.000000
vn 0.000000 1.000000 0.000000
vn 0.000000 1.000000 0.000000
vn 0.000000 1.000000 0.000000
vn 0.000000 1.000000 0.000000
vn 0.000000 1.000000 0.000000
vn 0.000000 1.000000 0.000000
vn 0.000000 1.000000 0.000000
vn 0.000000 1.000000 0.000000
vn 0.000000 1.000000 0.000000
vn 0.000000 1.000000 0.000000
vn 0.000000 1.000000 0.000000
vn 0.000000 1.000000 0.000000
vn 0.000000 1.000000 0.000000
vn 0.000000 1.000000 0.000000
vn 0.000000 1.000000 0.000000
vn 0.000000 1.000000 0.000000
vn 0.000000 1.000000 0.000000
vn 0.000000 1.000000 0.000000
vn 0.000000 1.000000 0.000000
vn 0.000000 1.000000 0.000000
vn 0.000000 1.000000 0.000000
vn 0.000000 1.000000 0.000000
vn 0.000000 1.000000 0.000000
vn 0.000000 1.000000 0.000000
vn 0.000000 1.000000 0.000000
vn 0.000000 1.000000 0.000000
vn 0.000000 1.000000 0.000000
vn 0.000000 1.000000 0.000000
vn 0.000000 1.000000 0.000000
vn 0.000000 1.000000 0.000000
vn 0.000000 1.000000 0.000000
vn 0.000000 1.000000 0.000000
vn 0.000000 1.000000 0.000000
vn 0.000000 1.000000 0.000000
vn 0.000000 1.000000 0.000000
vn 0.000000 1.000000 0.000000
vn 0.000000 1.000000 0.000000
vn 0.000000 1.000000 0.000000
vn 0.000000 1.000000 0.000000
vn 0.000000 1.000000 0.000000
vn 0.000000 1.000000 0.000000
vn 0.000000 1.000000 0.000000
vn 0.000000 1.000000 0.000000
vn 0.000000 1.000000 0.000000
vn 0.000000 1.000000 0.000000
vn 0.000000 1.000000 0.000000
vn 0.000000 1.000000 0.000000
vn 0.000000 1.000000 0.000000
vn 0.000000 1.000000 0.000000
vn 0.000000 1.000000 0.000000
vn 0.000000 1.000000 0.000000
vn 0.000000 1.000000 0.000000
vn 0.000000 1.000000 0.000000
vn 0.000000 1.000000 0.000000
vn 0.000000 1.000000 0.000000
vn 0.000000 1.000000 0.000000
vn 0.000000 1.000000 0.000000
vn 0.000000 1.000000 0.000000
vn 0.000000 1.000000 0.000000
vn 0.000000 1.000000 0.000000
vn 0.000000 1.000000 0.000000
vn 0.000000 1.000000 0.000000
vn 0.000000 1.000000 0.000000
vn 0.000000 1.000000 0.000000
vn 0.000000 1.000000 0.000000
vn 0.000000 1.000000 0.000000
vn 0.000000 1.000000 0.000000
vn 0.000000 1.000000 0.000000
vn 0.000000 1.000000 0.000000
vn 0.000000 1.000000 0.000000
vn 0.000000 1.000000 0.000000
vn 0.000000 1.000000 0.000000
vn 0.000000 1.000000 0.000000
vn 0.000000 1.000000 0.000000
vn 0.000000 1.000000 0.000000
vn 0.000000 1.000000 0.000000
vn 0.000000 1.000000 0.000000
vn 0.000000 1.000000 0.000000
vn 0.000000 1.000000 0.000000
vn 0.000000 1.000000 0.000000
vn 0.000000 1.000000 0.000000
vn 0.000000 1.000000 0.000000
vn 0.000000 1.000000 0.000000
vn 0.000000 1.000000 0.000000
vn 0.000000 1.000000 0.000000
vn 0.000000 1.000000 0.000000
vn 0.000000 1.000000 0.000000
vn 0.000000 1.000000 0.000000
vn 0.000000 1.000000 0.000000
vn 0.000000 1.000000 0.000000
vn 0.000000 1.000000 0.000000
vn 0.000000 1.000000 0.000000
vn 0.000000 1.000000 0.000000
vn 0.000000 1.000000 0.000000
vn 0.000000 1.000000 0.000000
vn 0.000000 1.000000 0.000000
vn 0.000000 1.000000 0.000000
vn 0.000000 1.000000 0.000000
vn 0.000000 1.000000 0.000000
vn 0.000000 1.000000 0.000000
vn 0.000000 1.000000 0.000000
vn 0.000000 1.000000 0.000000
vn 0.000000 1.000000 0.000000
vn 0.000000 1.000000 0.000000
vn 0.000000 1.000000 0.000000
vn 0.000000 1.000000 0.000000
vn 0.000000 1.000000 0.000000
vn 0.000000 1.000000 0.000000
vn 0.000000 1.000000 0.000000
vn 0.000000 1.000000 0.000000
vn 0.000000 1.000000 0.000000
vn 0.000000 1.000000 0.000000
vn 0.000000 1.000000 0.000000
vn 0.000000 1.000000 0.000000
vn 0.000000 1.000000 0.000000
vn 0.000000 1.000000 0.000000
vn 0.000000 1.000000 0.000000
vn 0.000000 1.000000 0.000000
vn 0.000000 1.000000 0.000000
vn 0.000000 1.000000 0.000000
vn 0.000000 1.000000 0.000000
vn 0.000000 1.000000 0.000000
vn 0.000000 1.000000 0.000000
vn 0.000000 1.000000 0.000000
vn 0.000000 1.000000 0.000000
vn 0.000000 1.000000 0.000000
vn 0.000000 1.000000 0.000000
vn 0.000000 1.000000 0.000000
vn 0.000000 1.000000 0.000000
vn 0.000000 1.000000 0.000000
vn 0.000000 1.000000 0.000000
vn 0.000000 1.000000 0.000000
vn 0.000000 1.000000 0.000000
vn 0.000000 1.000000 0.000000
vn 0.000000 1.000000 0.000000
vn 0.000000 1.000000 0.000000
vn 0.000000 1.000000 0.000000
vn 0.000000 1.000000 0.000000
vn 0.000000 1.000000 0.000000
vn 0.000000 1.000000 0.000000
vn 0.000000 1.000000 0.000000
vn 0.000000 1.000000 0.000000
vn 0.000000 1.000000 0.000000
vn 0.000000 1.000000 0.000000
vn 0.000000 1.000000 0.000000
vn 0.000000 1.000000 0.000000
vn 0.000000 1.000000 0.000000
vn 0.000000 1.000000 0.000000
vn 0.000000 1.000000 0.000000
vn 0.000000 1.000000 0.000000
vn 0.000000 1.000000 0.000000
vn 0.000000 1.000000 0.000000
vn 0.000000 1.000000 0.000000
vn 0.000000 1.000000 0.000000
vn 0.000000 1.000000 0.000000
vn 0.000000 1.000000 0.000000
vn 0.000000 1.000000 0.000000
vn 0.000000 1.000000 0.000000
vn 0.000000 1.000000 0.000000
vn 0.000000 1.000000 0.000000
vn 0.000000 1.000000 0.000000
vn 0.000000 1.000000 0.000000
vn 0.000000 1.000000 0.000000
vn 0.000000 1.000000 0.000000
vn 0.000000 1.000000 0.000000
vn 0.000000 1.000000 0.000000
vn 0.000000 1.000000 0.000000
vn 0.000000 1.000000 0.000000
vn 0.000000 1.000000 0.000000
vn 0.000000 1.000000 0.000000
vn 0.000000 1.000000 0.000000
vn 0.000000 1.000000 0.000000
vn 0.000000 1.000000 0.000000
vn 0.000000 1.000000 0.000000
vn 0.000000 1.000000 0.000000
vn 0.000000 1.000000 0.000000
vn 0.000000 1.000000 0.000000
vn 0.000000 1.000000 0.000000
vn 0.000000 1.000000 0.000000
vn 0.000000 1.000000 0.000000
vn 0.000000 1.000000 0.000000
vn 0.000000 1.000000 0.000000
vn 0.000000 1.000000 0.000000
vn 0.000000 1.000000 0.000000
vn 0.000000 1.000000 0.000000
vn 0.000000 1.000000 0.000000
vn 0.000000 1.000000 0.000000
vn 0.000000 1.000000 0.000000
vn 0.000000 1.000000 0.000000
vn 0.000000 1.000000 0.000000
vn 0.000000 1.000000 0.000000
vn 0.000000 1.000000 0.000000
vn 0.000000 1.000000 0.000000
vn 0.000000 1.000000 0.000000
vn 0.000000 1.000000 0.000000
vn 0.000000 1.000000 0.000000
vn 0.000000 1.000000 0.000000
vn 0.000000 1.000000 0.000000
vn 0.000000 1.000000 0.000000
vn 0.000000 1.000000 0.000000
vn 0.000000 1.000000 0.000000
vn 0.000000 1.000000 0.000000
vn 0.000000 1.000000 0.000000
vn 0.000000 1.000000 0.000000
vn 0.000000 1.000000 0.000000
vn 0.000000 1.000000 0.000000
vn 0.000000 1.000000 0.000000
vn 0.000000 1.000000 0.000000
vn 0.000000 1.000000 0.000000
vn 0.000000 1.000000 0.000000
vn 0.000000 1.000000 0.000000
vn 0.000000 1.000000 0.000000
vn 0.000000 1.000000 0.000000
vn 0.000000 1.000000 0.000000
vn 0.000000 1.000000 0.000000
vn 0.000000 1.000000 0.000000
vn 0.000000 1.000000 0.000000
vn 0.000000 1.000000 0.000000
vn 0.000000 1.000000 0.000000
vn 0.000000 1.000000 0.000000
vn 0.000000 1.000000 0.000000
vn 0.000000 1.000000 0.000000
vn 0.000000 1.000000 0.000000
vn 0.000000 1.000000 0.000000
vn 0.000000 1.000000 0.000000
vn 0.000000 1.000000 0.000000
vn 0.000000 1.000000 0.000000
vn 0.000000 1.000000 0.000000
vn 0.000000 1.000000 0.000000
vn 0.000000 1.000000 0.000000
vn 0.000000 1.000000 0.000000
vn 0.000000 1.000000 0.000000
vn 0.000000 1.000000 0.000000
vn 0.000000 1.000000 0.000000
vn 0.000000 1.000000 0.000000
vn 0.000000 1.000000 0.000000
vn 0.000000 1.000000 0.000000
vn 0.000000 1.000000 0.000000
vn 0.000000 1.000000 0.000000
vn 0.000000 1.000000 0.000000
vn 0.000000 1.000000 0.000000
vn 0.000000 1.000000 0.000000
vn 0.000000 1.000000 0.000000
vn 0.000000 1.000000 0.000000
vn 0.000000 1.000000 0.000000
vn 0.000000 1.000000 0.000000
vn 0.000000 1.000000 0.000000
vn 0.000000 1.000000 0.000000
vn 0.000000 1.000000 0.000000
vn 0.000000 1.000000 0.000000
vn 0.000000 1.000000 0.000000
vn 0.000000 1.000000 0.000000
vn 0.000000 1.000000 0.000000
vn 0.000000 1.000000 0.000000
vn 0.000000 1.000000 0.000000
vn 0.000000 1.000000 0.000000
vn 0.000000 1.000000 0.000000
vn 0.000000 1.000000 0.000000
vn 0.000000 1.000000 0.000000
vn 0.000000 1.000000 0.000000
vn 0.000000 1.000000 0.000000
vn 0.000000 1.000000 0.000000
vn 0.000000 1.000000 0.000000
vn 0.000000 1.000000 0.000000
vn 0.000000 1.000000 0.000000
vn 0.000000 1.000000 0.000000
vn 0.000000 1.000000 0.000000
vn 0.000000 1.000000 0.000000
vn 0.000000 1.000000 0.000000
vn 0.000000 1.000000 0.000000
vn 0.000000 1.000000 0.000000
vn 0.000000 1.000000 0.000000
vn 0.000000 1.000000 0.000000
vn 0.000000 1.000000 0.000000
vn 0.000000 1.000000 0.000000
vn 0.000000 1.000000 0.000000
vn 0.000000 1.000000 0.000000
vn 0.000000 1.000000 0.000000
vn 0.000000 1.000000 0.000000
vn 0.000000 1.000000 0.000000
vn 0.000000 1.000000 0.000000
vn 0.000000 1.000000 0.000000
vn 0.000000 1.000000 0.000000
vn 0.000000 1.000000 0.000000
vn 0.000000 1.000000 0.000000
vn 0.000000 1.000000 0.000000
vn 0.000000 1.000000 0.000000
vn 0.000000 1.000000 0.000000
vn 0.000000 1.000000 0.000000
vn 0.000000 1.000000 0.000000
vn 0.000000 1.000000 0.000000
vn 0.000000 1.000000 0.000000
vn 0.000000 1.000000 0.000000
s off
g pPlane1
f 1/1/1 65/65/2 64/64/3
f 64/64/4 65/65/5 81/81/6
f 5/5/7 51/51/8 61/61/9
f 61/61/10 51/51/11 80/80/12
f 6/6/13 52/52/14 44/44/15
f 44/44/16 52/52/17 79/79/18
f 7/7/19 53/53/20 59/59/21
f 59/59/22 53/53/23 78/78/24
f 18/18/25 40/40/26 45/45/27
f 45/45/28 40/40/29 77/77/30
f 12/12/31 39/39/32 56/56/33
f 56/56/34 39/39/35 76/76/36
f 15/15/37 38/38/38 48/48/39
f 48/48/40 38/38/41 75/75/42
f 14/14/43 36/36/44 58/58/45
f 58/58/46 36/36/47 74/74/48
f 13/13/49 35/35/50 50/50/51
f 50/50/52 35/35/53 73/73/54
f 19/19/55 34/34/56 63/63/57
f 63/63/58 34/34/59 72/72/60
f 16/16/61 32/32/62 60/60/63
f 60/60/64 32/32/65 71/71/66
f 11/11/67 31/31/68 55/55/69
f 55/55/70 31/31/71 70/70/72
f 17/17/73 30/30/74 46/46/75
f 46/46/76 30/30/77 69/69/78
f 10/10/79 28/28/80 54/54/81
f 54/54/82 28/28/83 68/68/84
f 13/13/85 27/27/86 57/57/87
f 57/57/88 27/27/89 67/67/90
f 20/20/91 26/26/92 43/43/93
f 43/43/94 26/26/95 66/66/96
f 53/53/97 66/66/98 10/10/99
f 10/10/100 66/66/101 28/28/102
f 28/28/103 66/66/104 25/25/105
f 25/25/106 66/66/107 26/26/108
f 43/43/109 66/66/110 7/7/111
f 7/7/112 66/66/113 53/53/114
f 42/42/115 67/67/116 21/21/117
f 21/21/118 67/67/119 29/29/120
f 29/29/121 67/67/122 25/25/123
f 25/25/124 67/67/125 27/27/126
f 57/57/127 67/67/128 8/8/129
f 8/8/130 67/67/131 42/42/132
f 50/50/133 68/68/134 13/13/135
f 13/13/136 68/68/137 27/27/138
f 27/27/139 68/68/140 25/25/141
f 25/25/142 68/68/143 28/28/144
f 54/54/145 68/68/146 9/9/147
f 9/9/148 68/68/149 50/50/150
f 47/47/151 69/69/152 16/16/153
f 16/16/154 69/69/155 32/32/156
f 32/32/157 69/69/158 24/24/159
f 24/24/160 69/69/161 30/30/162
f 46/46/163 69/69/164 4/4/165
f 4/4/166 69/69/167 47/47/168
f 56/56/169 70/70/170 12/12/171
f 12/12/172 70/70/173 33/33/174
f 33/33/175 70/70/176 24/24/177
f 24/24/178 70/70/179 31/31/180
f 55/55/181 70/70/182 9/9/183
f 9/9/184 70/70/185 56/56/186
f 52/52/187 71/71/188 11/11/189
f 11/11/190 71/71/191 31/31/192
f 31/31/193 71/71/194 24/24/195
f 24/24/196 71/71/197 32/32/198
f 60/60/199 71/71/200 6/6/201
f 6/6/202 71/71/203 52/52/204
f 49/49/205 72/72/206 14/14/207
f 14/14/208 72/72/209 36/36/210
f 36/36/211 72/72/212 23/23/213
f 23/23/214 72/72/215 34/34/216
f 63/63/217 72/72/218 2/2/219
f 2/2/220 72/72/221 49/49/222
f 55/55/223 73/73/224 11/11/225
f 11/11/226 73/73/227 37/37/228
f 37/37/229 73/73/230 23/23/231
f 23/23/232 73/73/233 35/35/234
f 50/50/235 73/73/236 9/9/237
f 9/9/238 73/73/239 55/55/240
f 57/57/241 74/74/242 13/13/243
f 13/13/244 74/74/245 35/35/246
f 35/35/247 74/74/248 23/23/249
f 23/23/250 74/74/251 36/36/252
f 58/58/253 74/74/254 8/8/255
f 8/8/256 74/74/257 57/57/258
f 62/62/259 75/75/260 18/18/261
f 18/18/262 75/75/263 40/40/264
f 40/40/265 75/75/266 22/22/267
f 22/22/268 75/75/269 38/38/270
f 48/48/271 75/75/272 3/3/273
f 3/3/274 75/75/275 62/62/276
f 54/54/277 76/76/278 10/10/279
f 10/10/280 76/76/281 41/41/282
f 41/41/283 76/76/284 22/22/285
f 22/22/286 76/76/287 39/39/288
f 56/56/289 76/76/290 9/9/291
f 9/9/292 76/76/293 54/54/294
f 51/51/295 77/77/296 12/12/297
f 12/12/298 77/77/299 39/39/300
f 39/39/301 77/77/302 22/22/303
f 22/22/304 77/77/305 40/40/306
f 45/45/307 77/77/308 5/5/309
f 5/5/310 77/77/311 51/51/312
f 38/38/313 78/78/314 22/22/315
f 22/22/316 78/78/317 41/41/318
f 41/41/319 78/78/320 10/10/321
f 10/10/322 78/78/323 53/53/324
f 59/59/325 78/78/326 15/15/327
f 15/15/328 78/78/329 38/38/330
f 34/34/331 79/79/332 23/23/333
f 23/23/334 79/79/335 37/37/336
f 37/37/337 79/79/338 11/11/339
f 11/11/340 79/79/341 52/52/342
f 44/44/343 79/79/344 19/19/345
f 19/19/346 79/79/347 34/34/348
f 30/30/349 80/80/350 24/24/351
f 24/24/352 80/80/353 33/33/354
f 33/33/355 80/80/356 12/12/357
f 12/12/358 80/80/359 51/51/360
f 61/61/361 80/80/362 17/17/363
f 17/17/364 80/80/365 30/30/366
f 26/26/367 81/81/368 25/25/369
f 25/25/370 81/81/371 29/29/372
f 29/29/373 81/81/374 21/21/375
f 21/21/376 81/81/377 65/65/378
f 64/64/379 81/81/380 20/20/381
f 20/20/382 81/81/383 26/26/384
